<svg xmlns="http://www.w3.org/2000/svg" viewBox="0 0 512 512" role="img" aria-label="AI Job Hunter">
  <rect width="512" height="512" rx="112" fill="#0f172a"/>
  <path d="M128 180h256a28 28 0 0 1 28 28v164a28 28 0 0 1-28 28H128a28 28 0 0 1-28-28V208a28 28 0 0 1 28-28Z" fill="#22d3ee"/>
  <path d="M196 180v-32a48 48 0 0 1 48-48h24a48 48 0 0 1 48 48v32" fill="none" stroke="#22d3ee" stroke-width="28"/>
  <path d="M100 264h312M228 248h56v48h-56z" fill="none" stroke="#0f172a" stroke-width="20"/>
</svg>
